<svg width="21" height="12" viewBox="0 0 21 12" fill="none" xmlns="http://www.w3.org/2000/svg">
<path d="M9.34702 11.118H3.92602C3.57069 11.118 3.26736 10.9924 3.01602 10.741C2.76469 10.4897 2.63902 10.1864 2.63902 9.83103V7.49103L4.39402 7.38703V9.41503L9.34702 9.25903V11.118ZM7.22802 1.22503L9.34702 0.926025V7.80303L7.22802 7.93303V1.22503ZM2.47002 6.90603H1.93702C1.58169 6.90603 1.27836 6.78469 1.02702 6.54203C0.775691 6.29069 0.650024 5.98736 0.650024 5.63203V2.17403L5.53802 1.56302V6.51603L2.47002 6.90603ZM3.71802 4.94303V3.22703L2.47002 3.35703V5.15103L3.71802 4.94303Z" fill="url(#paint0_linear_10_68)"/>
<path d="M17.9992 9.19403C18.0339 9.11603 18.0512 9.03369 18.0512 8.94703C18.0512 8.75636 17.9472 8.61769 17.7392 8.53103C17.5399 8.44436 17.2626 8.40103 16.9072 8.40103C16.3699 8.40103 15.8976 8.47903 15.4902 8.63503C15.0829 8.79103 14.8186 9.02936 14.6972 9.35003C14.6626 9.47136 14.6452 9.54936 14.6452 9.58403C14.6452 9.80069 14.7709 9.95669 15.0222 10.052C15.2822 10.1474 15.6202 10.1864 16.0362 10.169C16.5389 10.1344 16.9636 10.039 17.3102 9.88303C17.6656 9.72703 17.8952 9.49736 17.9992 9.19403ZM10.6412 5.55403C10.6412 5.12069 10.8016 4.77836 11.1222 4.52703C11.4516 4.27569 11.9239 4.15003 12.5392 4.15003C12.8252 4.15003 13.2412 4.20203 13.7872 4.30603C13.9779 3.91603 14.1339 3.47836 14.2552 2.99303L11.4862 3.27903V2.00503L16.0362 1.43303L16.9202 1.32903C16.5996 2.28236 16.3396 3.01036 16.1402 3.51303C15.9496 4.00703 15.7459 4.42736 15.5292 4.77403C16.1099 4.95603 16.6646 5.14236 17.1932 5.33302L16.0752 6.76303L14.2942 5.98303C13.9476 6.19103 13.5186 6.39469 13.0072 6.59403C12.6692 6.72403 12.3616 6.78903 12.0842 6.78903C11.6509 6.78903 11.2999 6.66769 11.0312 6.42503C10.7712 6.18236 10.6412 5.89203 10.6412 5.55403ZM11.8372 5.47603C11.8372 5.55403 11.8632 5.61903 11.9152 5.67103C11.9759 5.72303 12.0582 5.74903 12.1622 5.74903C12.3096 5.74903 12.5002 5.68836 12.7342 5.56703C12.8296 5.51503 12.9119 5.45869 12.9812 5.39803L12.7732 5.29403C12.6172 5.21603 12.4656 5.17703 12.3182 5.17703C12.1882 5.17703 12.0756 5.20736 11.9802 5.26803C11.8849 5.32003 11.8372 5.38936 11.8372 5.47603ZM12.5132 9.37603C12.5132 8.66536 12.8642 8.13236 13.5662 7.77703C14.2682 7.41303 15.1912 7.20936 16.3352 7.16603C17.4879 7.14003 18.4152 7.29169 19.1172 7.62103C19.8279 7.94169 20.1832 8.46169 20.1832 9.18103C20.1832 9.92636 19.7976 10.4767 19.0262 10.832C18.2549 11.196 17.2582 11.378 16.0362 11.378C14.9789 11.378 14.1252 11.2134 13.4752 10.884C12.8339 10.5634 12.5132 10.0607 12.5132 9.37603ZM16.7512 3.33103L18.0642 3.18802V1.21203L20.1832 0.926025V6.37303L18.0642 6.62003V4.30603L16.7512 4.43603V3.33103Z" fill="url(#paint1_linear_10_68)"/>
<defs>
<linearGradient id="paint0_linear_10_68" x1="-3" y1="6" x2="30.5" y2="6" gradientUnits="userSpaceOnUse">
<stop stop-color="#2522BA"/>
<stop offset="0.417938" stop-color="#5856E9"/>
<stop offset="1" stop-color="#CBCBE9"/>
</linearGradient>
<linearGradient id="paint1_linear_10_68" x1="-3" y1="6" x2="30.5" y2="6" gradientUnits="userSpaceOnUse">
<stop stop-color="#2522BA"/>
<stop offset="0.417938" stop-color="#5856E9"/>
<stop offset="1" stop-color="#CBCBE9"/>
</linearGradient>
</defs>
</svg>
