<svg width="19" height="11" viewBox="0 0 19 11" fill="none" xmlns="http://www.w3.org/2000/svg">
<path d="M1.28698 10C1.20031 10 1.12231 9.96969 1.05298 9.90903C0.992308 9.84836 0.961975 9.77036 0.961975 9.67502V1.22502C0.961975 1.12969 0.992308 1.05169 1.05298 0.991025C1.12231 0.930358 1.20031 0.900024 1.28698 0.900024H2.49598C2.62598 0.900024 2.72131 0.934691 2.78198 1.00402C2.85131 1.07336 2.89898 1.12536 2.92498 1.16002L5.31698 5.56703L7.73498 1.16002C7.75231 1.12536 7.79131 1.07336 7.85198 1.00402C7.92131 0.934691 8.02098 0.900024 8.15098 0.900024H9.35998C9.45531 0.900024 9.53331 0.930358 9.59398 0.991025C9.65464 1.05169 9.68498 1.12969 9.68498 1.22502V9.67502C9.68498 9.77036 9.65464 9.84836 9.59398 9.90903C9.53331 9.96969 9.45531 10 9.35998 10H8.03398C7.94731 10 7.87364 9.96969 7.81298 9.90903C7.75231 9.84836 7.72198 9.77036 7.72198 9.67502V4.42302L6.07098 7.51702C6.02764 7.59503 5.97131 7.66436 5.90198 7.72502C5.83264 7.78569 5.74164 7.81602 5.62898 7.81602H5.01798C4.90531 7.81602 4.81431 7.78569 4.74498 7.72502C4.67564 7.66436 4.61931 7.59503 4.57598 7.51702L2.92498 4.42302V9.67502C2.92498 9.77036 2.89464 9.84836 2.83398 9.90903C2.77331 9.96969 2.69964 10 2.61298 10H1.28698Z" fill="url(#paint0_linear_11_81)"/>
<path d="M14.6553 10.13C14.17 10.13 13.7107 10.0694 13.2773 9.94802C12.844 9.82669 12.4583 9.64469 12.1203 9.40203C11.7823 9.15069 11.5137 8.84302 11.3143 8.47902C11.1237 8.11502 11.0197 7.69036 11.0023 7.20502C11.0023 7.12702 11.0283 7.06202 11.0803 7.01003C11.1323 6.94936 11.2017 6.91902 11.2883 6.91902H12.7703C12.883 6.91902 12.9697 6.94936 13.0303 7.01003C13.0997 7.07069 13.1517 7.15736 13.1863 7.27002C13.2297 7.54736 13.3207 7.77269 13.4593 7.94602C13.598 8.11936 13.7713 8.24936 13.9793 8.33602C14.196 8.41402 14.4387 8.45302 14.7073 8.45302C15.2013 8.45302 15.5783 8.29269 15.8383 7.97202C16.107 7.65136 16.2413 7.19636 16.2413 6.60703V2.62902H11.9123C11.8257 2.62902 11.752 2.59869 11.6913 2.53803C11.6307 2.47736 11.6003 2.40369 11.6003 2.31702V1.22502C11.6003 1.12969 11.6307 1.05169 11.6913 0.991025C11.752 0.930358 11.8257 0.900024 11.9123 0.900024H18.0353C18.1307 0.900024 18.2087 0.930358 18.2693 0.991025C18.33 1.05169 18.3603 1.12969 18.3603 1.22502V6.65903C18.3603 7.40436 18.2043 8.03702 17.8923 8.55702C17.5803 9.06836 17.147 9.45836 16.5923 9.72703C16.0377 9.99569 15.392 10.13 14.6553 10.13Z" fill="url(#paint1_linear_11_81)"/>
<defs>
<linearGradient id="paint0_linear_11_81" x1="-2.28913" y1="5.38077" x2="27.5496" y2="5.38077" gradientUnits="userSpaceOnUse">
<stop stop-color="#2522BA"/>
<stop offset="0.417938" stop-color="#5856E9"/>
<stop offset="1" stop-color="#CBCBE9"/>
</linearGradient>
<linearGradient id="paint1_linear_11_81" x1="-2.28913" y1="5.38077" x2="27.5496" y2="5.38077" gradientUnits="userSpaceOnUse">
<stop stop-color="#2522BA"/>
<stop offset="0.417938" stop-color="#5856E9"/>
<stop offset="1" stop-color="#CBCBE9"/>
</linearGradient>
</defs>
</svg>
