<svg width="10" height="13" viewBox="0 0 10 13" fill="none" xmlns="http://www.w3.org/2000/svg">
<path d="M9.035 1.04C9.035 1.3 8.97867 1.495 8.866 1.625C8.762 1.755 8.58867 1.82 8.346 1.82C8.32867 2.002 8.28967 2.31833 8.229 2.769C8.14233 3.37567 8.09467 3.71367 8.086 3.783C7.31467 9.529 5.707 12.402 3.263 12.402C2.54367 12.402 1.98033 12.1983 1.573 11.791C1.17433 11.3837 0.975 10.8723 0.975 10.257C0.975 9.15633 1.443 8.18567 2.379 7.345C3.315 6.49567 4.54567 5.79367 6.071 5.239C6.16633 4.62367 6.24 4.07333 6.292 3.588L6.526 1.625C6.006 1.573 5.52067 1.547 5.07 1.547C3.86533 1.547 2.977 1.664 2.405 1.898C1.833 2.132 1.547 2.51333 1.547 3.042C1.547 3.302 1.63367 3.58367 1.807 3.887C1.859 3.97367 1.885 4.06467 1.885 4.16C1.885 4.342 1.78967 4.50667 1.599 4.654C1.417 4.79267 1.21767 4.862 1.001 4.862C0.723667 4.862 0.511333 4.745 0.364 4.511C0.121333 4.11233 0 3.64867 0 3.12C0 1.04 1.82 0 5.46 0C6.51733 0 7.462 0.104 8.294 0.312C8.788 0.433334 9.035 0.676 9.035 1.04ZM3.432 11.011C3.85667 11.011 4.28133 10.6903 4.706 10.049C5.13067 9.40767 5.50333 8.28533 5.824 6.682C3.70933 7.60933 2.652 8.74467 2.652 10.088C2.652 10.3827 2.72133 10.6123 2.86 10.777C2.99867 10.933 3.18933 11.011 3.432 11.011Z" fill="url(#paint0_linear_11_82)"/>
<defs>
<linearGradient id="paint0_linear_11_82" x1="-1.6883" y1="6.02061" x2="13.807" y2="6.02061" gradientUnits="userSpaceOnUse">
<stop stop-color="#2522BA"/>
<stop offset="0.417938" stop-color="#5856E9"/>
<stop offset="1" stop-color="#CBCBE9"/>
</linearGradient>
</defs>
</svg>
